<svg width="132" height="45" viewBox="0 0 132 45" fill="none" xmlns="http://www.w3.org/2000/svg">
<path d="M0 10.8528C0 7.59119 0 5.9604 0.532843 4.674C1.2433 2.9588 2.60602 1.59608 4.32122 0.885626C5.60761 0.352783 7.23841 0.352783 10.5 0.352783H121.5C124.762 0.352783 126.392 0.352783 127.679 0.885626C129.394 1.59608 130.757 2.9588 131.467 4.674C132 5.9604 132 7.59119 132 10.8528V33.8528C132 37.1144 132 38.7452 131.467 40.0316C130.757 41.7468 129.394 43.1095 127.679 43.8199C126.392 44.3528 124.762 44.3528 121.5 44.3528H10.5C7.23841 44.3528 5.60761 44.3528 4.32122 43.8199C2.60602 43.1095 1.2433 41.7468 0.532843 40.0316C0 38.7452 0 37.1144 0 33.8528V10.8528Z" fill="black"/>
<path d="M89.6784 21.4738V23.9939H88.0988V25.6466H89.6784V31.2621C89.6784 33.1796 90.5459 33.9466 92.7281 33.9466C93.1116 33.9466 93.4769 33.9009 93.7965 33.8461V32.2117C93.5225 32.2391 93.349 32.2573 93.0477 32.2573C92.0707 32.2573 91.6416 31.8008 91.6416 30.7599V25.6466H93.7965V23.9939H91.6416V21.4738H89.6784Z" fill="white"/>
<path d="M99.3557 34.0835C102.259 34.0835 104.04 32.1386 104.04 28.9155C104.04 25.7105 102.25 23.7565 99.3557 23.7565C96.4521 23.7565 94.6624 25.7105 94.6624 28.9155C94.6624 32.1386 96.443 34.0835 99.3557 34.0835ZM99.3557 32.3395C97.6482 32.3395 96.6895 31.0886 96.6895 28.9155C96.6895 26.7606 97.6482 25.5005 99.3557 25.5005C101.054 25.5005 102.022 26.7606 102.022 28.9155C102.022 31.0795 101.054 32.3395 99.3557 32.3395Z" fill="white"/>
<path d="M105.563 33.8918H107.526V28.0206C107.526 26.6236 108.576 25.6831 110.065 25.6831C110.412 25.6831 110.996 25.747 111.16 25.8018V23.8661C110.95 23.8113 110.576 23.7839 110.284 23.7839C108.987 23.7839 107.882 24.4961 107.599 25.4731H107.453V23.9483H105.563V33.8918Z" fill="white"/>
<path d="M116.035 25.4275C117.487 25.4275 118.436 26.441 118.482 28.0024H113.46C113.57 26.4501 114.583 25.4275 116.035 25.4275ZM118.473 31.2073C118.108 31.9834 117.295 32.4126 116.108 32.4126C114.537 32.4126 113.524 31.3077 113.46 29.5637V29.4542H120.482V28.7694C120.482 25.6466 118.811 23.7565 116.044 23.7565C113.241 23.7565 111.46 25.7744 111.46 28.952C111.46 32.1295 113.204 34.0835 116.053 34.0835C118.327 34.0835 119.915 32.9878 120.363 31.2073H118.473Z" fill="white"/>
<path d="M76.8045 30.2198C76.9559 32.6615 78.9907 34.223 82.0191 34.223C85.2557 34.223 87.281 32.5858 87.281 29.9737C87.281 27.9201 86.1264 26.7844 83.3251 26.1314L81.8203 25.7623C80.0411 25.3459 79.3219 24.7875 79.3219 23.8128C79.3219 22.5824 80.4386 21.778 82.1137 21.778C83.7037 21.778 84.8015 22.5635 85.0002 23.8222H87.0633C86.9403 21.5225 84.915 19.9042 82.1421 19.9042C79.161 19.9042 77.1736 21.5225 77.1736 23.9547C77.1736 25.961 78.2998 27.1535 80.7699 27.7308L82.5301 28.1567C84.3377 28.5825 85.1327 29.2072 85.1327 30.2482C85.1327 31.4596 83.8835 32.3397 82.18 32.3397C80.3535 32.3397 79.0853 31.5163 78.9055 30.2198H76.8045Z" fill="white"/>
<path d="M56.4684 23.7839C55.1171 23.7839 53.9483 24.4596 53.3457 25.5918H53.1996V23.9483H51.3095V37.1971H53.2726V32.3852H53.4279C53.9483 33.4352 55.0714 34.0561 56.4867 34.0561C58.9977 34.0561 60.5956 32.0747 60.5956 28.9155C60.5956 25.7562 58.9977 23.7839 56.4684 23.7839ZM55.9114 32.2939C54.2679 32.2939 53.2361 30.9973 53.2361 28.9246C53.2361 26.8427 54.2679 25.5462 55.9206 25.5462C57.5824 25.5462 58.5777 26.8154 58.5777 28.9155C58.5777 31.0247 57.5824 32.2939 55.9114 32.2939Z" fill="white"/>
<path d="M67.4649 23.7839C66.1135 23.7839 64.9448 24.4596 64.3422 25.5918H64.1961V23.9483H62.306V37.1971H64.2691V32.3852H64.4243C64.9448 33.4352 66.0679 34.0561 67.4832 34.0561C69.9942 34.0561 71.5921 32.0747 71.5921 28.9155C71.5921 25.7562 69.9942 23.7839 67.4649 23.7839ZM66.9079 32.2939C65.2644 32.2939 64.2326 30.9973 64.2326 28.9246C64.2326 26.8427 65.2644 25.5462 66.9171 25.5462C68.5789 25.5462 69.5741 26.8154 69.5741 28.9155C69.5741 31.0247 68.5789 32.2939 66.9079 32.2939Z" fill="white"/>
<path d="M47.7873 33.8918H50.0397L45.109 20.2354H42.8282L37.8976 33.8918H40.0742L41.3329 30.2671H46.5381L47.7873 33.8918ZM43.8598 22.7149H44.0207L45.9986 28.4879H41.8724L43.8598 22.7149Z" fill="white"/>
<path d="M39.2163 9.93486V16.5228H41.5949C43.558 16.5228 44.6948 15.3129 44.6948 13.2083C44.6948 11.1356 43.5489 9.93486 41.5949 9.93486H39.2163ZM40.2389 10.8662H41.4807C42.8458 10.8662 43.6539 11.7336 43.6539 13.222C43.6539 14.7331 42.8595 15.5914 41.4807 15.5914H40.2389V10.8662Z" fill="white"/>
<path d="M48.1764 16.6187C49.6282 16.6187 50.5184 15.6462 50.5184 14.0346C50.5184 12.4322 49.6236 11.4552 48.1764 11.4552C46.7246 11.4552 45.8297 12.4322 45.8297 14.0346C45.8297 15.6462 46.72 16.6187 48.1764 16.6187ZM48.1764 15.7467C47.3226 15.7467 46.8433 15.1212 46.8433 14.0346C46.8433 12.9572 47.3226 12.3271 48.1764 12.3271C49.0255 12.3271 49.5095 12.9572 49.5095 14.0346C49.5095 15.1166 49.0255 15.7467 48.1764 15.7467Z" fill="white"/>
<path d="M58.0998 11.551H57.1182L56.2325 15.3449H56.1549L55.1323 11.551H54.1918L53.1691 15.3449H53.0961L52.2058 11.551H51.2106L52.5802 16.5228H53.5892L54.6118 12.8613H54.6894L55.7166 16.5228H56.7347L58.0998 11.551Z" fill="white"/>
<path d="M59.2302 16.5228H60.2118V13.6146C60.2118 12.8385 60.6729 12.3545 61.3988 12.3545C62.1247 12.3545 62.4716 12.7517 62.4716 13.5507V16.5228H63.4532V13.3042C63.4532 12.1217 62.8414 11.4552 61.732 11.4552C60.9833 11.4552 60.4903 11.7884 60.2483 12.3408H60.1752V11.551H59.2302V16.5228Z" fill="white"/>
<path d="M64.9991 16.5228H65.9806V9.61072H64.9991V16.5228Z" fill="white"/>
<path d="M69.6722 16.6187C71.1241 16.6187 72.0143 15.6462 72.0143 14.0346C72.0143 12.4322 71.1195 11.4552 69.6722 11.4552C68.2204 11.4552 67.3256 12.4322 67.3256 14.0346C67.3256 15.6462 68.2159 16.6187 69.6722 16.6187ZM69.6722 15.7467C68.8185 15.7467 68.3391 15.1212 68.3391 14.0346C68.3391 12.9572 68.8185 12.3271 69.6722 12.3271C70.5214 12.3271 71.0054 12.9572 71.0054 14.0346C71.0054 15.1166 70.5214 15.7467 69.6722 15.7467Z" fill="white"/>
<path d="M74.9389 15.7786C74.4048 15.7786 74.0167 15.5184 74.0167 15.071C74.0167 14.6327 74.3272 14.3999 75.012 14.3542L76.2264 14.2766V14.692C76.2264 15.3084 75.6785 15.7786 74.9389 15.7786ZM74.6878 16.605C75.3407 16.605 75.884 16.3219 76.1807 15.8243H76.2583V16.5228H77.2034V13.1261C77.2034 12.076 76.5003 11.4552 75.2539 11.4552C74.1263 11.4552 73.3228 12.003 73.2223 12.8567H74.1719C74.2815 12.5052 74.6604 12.3043 75.2083 12.3043C75.8794 12.3043 76.2264 12.6011 76.2264 13.1261V13.5552L74.8796 13.6329C73.6971 13.7059 73.0306 14.2218 73.0306 15.1166C73.0306 16.0251 73.7291 16.605 74.6878 16.605Z" fill="white"/>
<path d="M80.5343 16.605C81.2191 16.605 81.7989 16.2808 82.0957 15.7375H82.1733V16.5228H83.1138V9.61072H82.1322V12.3408H82.0592C81.7898 11.793 81.2146 11.4688 80.5343 11.4688C79.2788 11.4688 78.4707 12.4641 78.4707 14.0346C78.4707 15.6097 79.2697 16.605 80.5343 16.605ZM80.8128 12.35C81.6346 12.35 82.1505 13.0028 82.1505 14.0392C82.1505 15.0801 81.6392 15.7238 80.8128 15.7238C79.9819 15.7238 79.4843 15.0892 79.4843 14.0346C79.4843 12.9891 79.9865 12.35 80.8128 12.35Z" fill="white"/>
<path d="M89.4789 16.6187C90.9307 16.6187 91.821 15.6462 91.821 14.0346C91.821 12.4322 90.9262 11.4552 89.4789 11.4552C88.0271 11.4552 87.1323 12.4322 87.1323 14.0346C87.1323 15.6462 88.0225 16.6187 89.4789 16.6187ZM89.4789 15.7467C88.6252 15.7467 88.1458 15.1212 88.1458 14.0346C88.1458 12.9572 88.6252 12.3271 89.4789 12.3271C90.3281 12.3271 90.812 12.9572 90.812 14.0346C90.812 15.1166 90.3281 15.7467 89.4789 15.7467Z" fill="white"/>
<path d="M93.1203 16.5228H94.1019V13.6146C94.1019 12.8385 94.563 12.3545 95.2889 12.3545C96.0148 12.3545 96.3618 12.7517 96.3618 13.5507V16.5228H97.3433V13.3042C97.3433 12.1217 96.7316 11.4552 95.6222 11.4552C94.8734 11.4552 94.3804 11.7884 94.1384 12.3408H94.0653V11.551H93.1203V16.5228Z" fill="white"/>
<path d="M101.864 10.3138V11.5739H101.074V12.4002H101.864V15.2079C101.864 16.1667 102.298 16.5502 103.389 16.5502C103.581 16.5502 103.763 16.5273 103.923 16.5V15.6827C103.786 15.6964 103.699 15.7056 103.549 15.7056C103.06 15.7056 102.846 15.4773 102.846 14.9568V12.4002H103.923V11.5739H102.846V10.3138H101.864Z" fill="white"/>
<path d="M105.241 16.5228H106.222V13.6192C106.222 12.8659 106.67 12.3591 107.473 12.3591C108.167 12.3591 108.537 12.7609 108.537 13.5552V16.5228H109.518V13.3133C109.518 12.1308 108.866 11.4597 107.806 11.4597C107.058 11.4597 106.533 11.793 106.291 12.35H106.213V9.61072H105.241V16.5228Z" fill="white"/>
<path d="M113.059 12.2906C113.785 12.2906 114.26 12.7974 114.283 13.5781H111.772C111.827 12.802 112.333 12.2906 113.059 12.2906ZM114.278 15.1805C114.096 15.5686 113.689 15.7832 113.096 15.7832C112.311 15.7832 111.804 15.2308 111.772 14.3588V14.304H115.283V13.9616C115.283 12.4002 114.447 11.4552 113.064 11.4552C111.662 11.4552 110.772 12.4641 110.772 14.0529C110.772 15.6416 111.644 16.6187 113.068 16.6187C114.205 16.6187 115 16.0708 115.223 15.1805H114.278Z" fill="white"/>
<path d="M27.2459 22.6837C27.2697 20.8346 28.2628 19.085 29.8381 18.1164C28.8443 16.6971 27.1797 15.7972 25.4478 15.743C23.6007 15.5491 21.8099 16.8483 20.8686 16.8483C19.9091 16.8483 18.4599 15.7622 16.8993 15.7944C14.8651 15.8601 12.9687 17.0166 11.9791 18.795C9.85167 22.4783 11.4385 27.8914 13.4764 30.8687C14.496 32.3266 15.6876 33.9551 17.2468 33.8973C18.7726 33.834 19.3424 32.9244 21.1841 32.9244C23.0088 32.9244 23.5434 33.8973 25.1342 33.8606C26.7714 33.834 27.803 32.3962 28.7868 30.9246C29.5194 29.8858 30.0831 28.7377 30.4571 27.5228C28.533 26.709 27.2481 24.7728 27.2459 22.6837Z" fill="white"/>
<path d="M24.2411 13.785C25.1337 12.7134 25.5735 11.336 25.467 9.94531C24.1032 10.0886 22.8434 10.7404 21.9387 11.7709C21.054 12.7777 20.5936 14.1309 20.6806 15.4684C22.0449 15.4825 23.3861 14.8483 24.2411 13.785Z" fill="white"/>
<path d="M4.32122 43.8199L4.7039 42.8961L4.32122 43.8199ZM0.532843 40.0316L1.45672 39.6489L0.532843 40.0316ZM131.467 40.0316L130.543 39.6489L131.467 40.0316ZM127.679 43.8199L127.296 42.8961L127.679 43.8199ZM127.679 0.885626L128.061 -0.0382531L127.679 0.885626ZM131.467 4.674L132.391 4.29132L131.467 4.674ZM10.5 1.35278H121.5V-0.647217H10.5V1.35278ZM131 10.8528V33.8528H133V10.8528H131ZM121.5 43.3528H10.5V45.3528H121.5V43.3528ZM1 33.8528V10.8528H-1V33.8528H1ZM10.5 43.3528C8.85552 43.3528 7.67224 43.3522 6.73798 43.2885C5.8127 43.2254 5.20494 43.1036 4.7039 42.8961L3.93853 44.7438C4.72389 45.0691 5.57473 45.2138 6.60184 45.2839C7.61997 45.3533 8.88288 45.3528 10.5 45.3528V43.3528ZM-1 33.8528C-1 35.4699 -1.00054 36.7328 -0.931075 37.7509C-0.860996 38.7781 -0.716341 39.6289 -0.391036 40.4142L1.45672 39.6489C1.24918 39.1478 1.12742 38.5401 1.06429 37.6148C1.00054 36.6805 1 35.4973 1 33.8528H-1ZM4.7039 42.8961C3.23373 42.2871 2.06569 41.1191 1.45672 39.6489L-0.391036 40.4142C0.420915 42.3745 1.97831 43.9319 3.93853 44.7438L4.7039 42.8961ZM131 33.8528C131 35.4973 130.999 36.6805 130.936 37.6148C130.873 38.5401 130.751 39.1478 130.543 39.6489L132.391 40.4142C132.716 39.6289 132.861 38.7781 132.931 37.7509C133.001 36.7328 133 35.4699 133 33.8528H131ZM121.5 45.3528C123.117 45.3528 124.38 45.3533 125.398 45.2839C126.425 45.2138 127.276 45.0691 128.061 44.7438L127.296 42.8961C126.795 43.1036 126.187 43.2254 125.262 43.2885C124.328 43.3522 123.144 43.3528 121.5 43.3528V45.3528ZM130.543 39.6489C129.934 41.1191 128.766 42.2871 127.296 42.8961L128.061 44.7438C130.022 43.9319 131.579 42.3745 132.391 40.4142L130.543 39.6489ZM121.5 1.35278C123.144 1.35278 124.328 1.35332 125.262 1.41707C126.187 1.4802 126.795 1.60197 127.296 1.80951L128.061 -0.0382531C127.276 -0.363558 126.425 -0.508213 125.398 -0.578292C124.38 -0.647758 123.117 -0.647217 121.5 -0.647217V1.35278ZM133 10.8528C133 9.23567 133.001 7.97275 132.931 6.95462C132.861 5.92751 132.716 5.07667 132.391 4.29132L130.543 5.05668C130.751 5.55772 130.873 6.16548 130.936 7.09076C130.999 8.02503 131 9.20831 131 10.8528H133ZM127.296 1.80951C128.766 2.41847 129.934 3.58651 130.543 5.05668L132.391 4.29132C131.579 2.33109 130.022 0.773699 128.061 -0.0382531L127.296 1.80951ZM10.5 -0.647217C8.88289 -0.647217 7.61997 -0.647758 6.60184 -0.578292C5.57473 -0.508213 4.72389 -0.363558 3.93853 -0.0382531L4.7039 1.80951C5.20494 1.60197 5.8127 1.4802 6.73798 1.41707C7.67225 1.35332 8.85552 1.35278 10.5 1.35278V-0.647217ZM1 10.8528C1 9.20831 1.00054 8.02503 1.06429 7.09076C1.12742 6.16548 1.24918 5.55772 1.45672 5.05668L-0.391036 4.29132C-0.716341 5.07667 -0.860996 5.92751 -0.931075 6.95462C-1.00054 7.97275 -1 9.23567 -1 10.8528H1ZM3.93853 -0.0382531C1.97831 0.773699 0.420915 2.33109 -0.391036 4.29132L1.45672 5.05668C2.06569 3.58651 3.23373 2.41847 4.7039 1.80951L3.93853 -0.0382531Z" fill="#A6A6A6"/>
</svg>
