<svg width="149" height="45" viewBox="0 0 149 45" fill="none" xmlns="http://www.w3.org/2000/svg">
<path d="M0 5.35278C0 2.59136 2.23858 0.352783 5 0.352783H143.5C146.261 0.352783 148.5 2.59136 148.5 5.35278V39.3528C148.5 42.1142 146.261 44.3528 143.5 44.3528H5C2.23857 44.3528 0 42.1142 0 39.3528V5.35278Z" fill="black"/>
<path d="M74.9496 24.279C72.3624 24.279 70.2537 26.2469 70.2537 28.9573C70.2537 31.6512 72.3624 33.6356 74.9496 33.6356C77.5379 33.6356 79.6466 31.6512 79.6466 28.9573C79.6455 26.2469 77.5368 24.279 74.9496 24.279ZM74.9496 31.7942C73.5317 31.7942 72.3096 30.6249 72.3096 28.9584C72.3096 27.2743 73.5328 26.1226 74.9496 26.1226C76.3675 26.1226 77.5896 27.2743 77.5896 28.9584C77.5896 30.6238 76.3675 31.7942 74.9496 31.7942ZM64.7042 24.279C62.117 24.279 60.0083 26.2469 60.0083 28.9573C60.0083 31.6512 62.117 33.6356 64.7042 33.6356C67.2925 33.6356 69.4012 31.6512 69.4012 28.9573C69.4012 26.2469 67.2925 24.279 64.7042 24.279ZM64.7042 31.7942C63.2863 31.7942 62.0642 30.6249 62.0642 28.9584C62.0642 27.2743 63.2874 26.1226 64.7042 26.1226C66.1221 26.1226 67.3442 27.2743 67.3442 28.9584C67.3453 30.6238 66.1221 31.7942 64.7042 31.7942ZM52.5184 25.7156V27.7H57.2682C57.1263 28.8165 56.7545 29.6316 56.1869 30.1981C55.4961 30.8889 54.4148 31.6512 52.5184 31.6512C49.5946 31.6512 47.3088 29.2939 47.3088 26.3701C47.3088 23.4463 49.5946 21.089 52.5184 21.089C54.0958 21.089 55.2475 21.7094 56.0978 22.5069L57.4981 21.1066C56.3101 19.9725 54.7338 19.1046 52.5184 19.1046C48.5133 19.1046 45.1462 22.365 45.1462 26.3701C45.1462 30.3752 48.5133 33.6356 52.5184 33.6356C54.6799 33.6356 56.3112 32.9261 57.5861 31.5973C58.8973 30.2861 59.3054 28.4425 59.3054 26.9542C59.3054 26.4944 59.2702 26.0687 59.1987 25.7145H52.5184V25.7156ZM102.357 27.2567C101.968 26.2117 100.78 24.279 98.3521 24.279C95.942 24.279 93.9389 26.1754 93.9389 28.9573C93.9389 31.5797 95.9244 33.6356 98.582 33.6356C100.726 33.6356 101.967 32.3244 102.481 31.5621L100.886 30.4984C100.355 31.2783 99.6281 31.792 98.582 31.792C97.537 31.792 96.7923 31.3135 96.3138 30.3741L102.569 27.7869L102.357 27.2567ZM95.9772 28.8165C95.9244 27.0081 97.3775 26.0874 98.4236 26.0874C99.2387 26.0874 99.9295 26.4955 100.16 27.0796L95.9772 28.8165ZM90.8919 33.3529H92.9467V19.6018H90.8919V33.3529ZM87.5237 25.3251H87.4533C86.9924 24.7751 86.1058 24.279 84.9904 24.279C82.6507 24.279 80.5068 26.3349 80.5068 28.976C80.5068 31.5984 82.6507 33.6367 84.9904 33.6367C86.1069 33.6367 86.9924 33.1406 87.4533 32.5741H87.5237V33.2473C87.5237 35.037 86.5667 35.994 85.0256 35.994C83.7672 35.994 82.9873 35.0909 82.6683 34.3286L80.8786 35.0733C81.3923 36.313 82.7563 37.8376 85.0256 37.8376C87.4357 37.8376 89.474 36.4197 89.474 32.9635V24.5639H87.5248V25.3251H87.5237ZM85.1675 31.7942C83.7496 31.7942 82.5627 30.6062 82.5627 28.976C82.5627 27.3271 83.7496 26.1226 85.1675 26.1226C86.5667 26.1226 87.6656 27.3271 87.6656 28.976C87.6656 30.6062 86.5667 31.7942 85.1675 31.7942ZM111.987 19.6018H107.068V33.3529H109.12V28.1433H111.985C114.26 28.1433 116.498 26.4966 116.498 23.8731C116.498 21.2496 114.261 19.6018 111.987 19.6018ZM112.039 26.2293H109.12V21.5158H112.039C113.574 21.5158 114.445 22.7863 114.445 23.8731C114.445 24.9379 113.574 26.2293 112.039 26.2293ZM124.725 24.2548C123.238 24.2548 121.7 24.9093 121.063 26.3602L122.884 27.1203C123.274 26.3602 124 26.1116 124.76 26.1116C125.821 26.1116 126.9 26.7485 126.918 27.8804V28.0223C126.546 27.81 125.75 27.4921 124.777 27.4921C122.814 27.4921 120.814 28.5712 120.814 30.5875C120.814 32.4278 122.424 33.6125 124.228 33.6125C125.608 33.6125 126.369 32.9932 126.846 32.2672H126.917V33.3287H128.899V28.0564C128.9 25.6166 127.076 24.2548 124.725 24.2548ZM124.476 31.7909C123.805 31.7909 122.867 31.4543 122.867 30.6227C122.867 29.5612 124.035 29.1542 125.044 29.1542C125.944 29.1542 126.37 29.3489 126.918 29.614C126.758 30.8889 125.662 31.7909 124.476 31.7909ZM136.117 24.5551L133.764 30.5171H133.694L131.252 24.5551H129.041L132.703 32.8876L130.615 37.523H132.756L138.4 24.5551H136.117ZM117.631 33.3529H119.682V19.6018H117.631V33.3529Z" fill="white"/>
<path d="M52.1599 11.62C52.1599 12.5418 51.8871 13.2755 51.3404 13.8233C50.72 14.4745 49.9104 14.8001 48.916 14.8001C47.9634 14.8001 47.1527 14.4701 46.4872 13.8101C45.8206 13.149 45.4873 12.3306 45.4873 11.3538C45.4873 10.3759 45.8206 9.55755 46.4872 8.89755C47.1527 8.23645 47.9634 7.90645 48.916 7.90645C49.389 7.90645 49.8411 7.99885 50.2701 8.18255C50.7002 8.36735 51.0445 8.61265 51.3019 8.91955L50.7222 9.50035C50.2855 8.97785 49.6838 8.71715 48.9149 8.71715C48.2197 8.71715 47.6191 8.96135 47.112 9.44975C46.6049 9.93815 46.3519 10.5728 46.3519 11.3527C46.3519 12.1326 46.6049 12.7673 47.112 13.2557C47.6191 13.7441 48.2197 13.9883 48.9149 13.9883C49.6519 13.9883 50.2668 13.743 50.7585 13.2513C51.0775 12.9312 51.2623 12.4857 51.3118 11.9148H48.9149V11.1217H52.1126C52.1456 11.2944 52.1599 11.4605 52.1599 11.62Z" fill="white"/>
<path d="M57.231 8.86351H54.2258V10.9557H56.9362V11.7488H54.2258V13.841H57.231V14.6528H53.3777V8.05281H57.231V8.86351Z" fill="white"/>
<path d="M60.8069 14.6528H59.9588V8.86351H58.1152V8.05281H62.6505V8.86351H60.8069V14.6528Z" fill="white"/>
<path d="M65.9318 14.6528V8.05281H66.7799V14.6528H65.9318Z" fill="white"/>
<path d="M70.541 14.6528H69.6929V8.86351H67.8493V8.05281H72.3846V8.86351H70.541V14.6528Z" fill="white"/>
<path d="M80.9698 13.8003C80.3208 14.4669 79.5145 14.8002 78.5498 14.8002C77.5851 14.8002 76.7788 14.4669 76.1309 13.8003C75.4819 13.1337 75.1585 12.3175 75.1585 11.3528C75.1585 10.3881 75.4819 9.5719 76.1309 8.9053C76.7788 8.2387 77.5851 7.9043 78.5498 7.9043C79.509 7.9043 80.3142 8.2398 80.9654 8.9097C81.6166 9.5796 81.9422 10.3936 81.9422 11.3528C81.9422 12.3175 81.6177 13.1337 80.9698 13.8003ZM76.7568 13.247C77.2452 13.742 77.8425 13.9884 78.5498 13.9884C79.2571 13.9884 79.8555 13.7409 80.3428 13.247C80.8312 12.752 81.0765 12.1206 81.0765 11.3528C81.0765 10.585 80.8312 9.9536 80.3428 9.4586C79.8555 8.9636 79.2571 8.7172 78.5498 8.7172C77.8425 8.7172 77.2452 8.9647 76.7568 9.4586C76.2695 9.9536 76.0242 10.585 76.0242 11.3528C76.0242 12.1206 76.2695 12.752 76.7568 13.247Z" fill="white"/>
<path d="M83.1324 14.6528V8.05281H84.1642L87.3718 13.1865H87.4081L87.3718 11.9149V8.05281H88.2199V14.6528H87.3344L83.9784 9.26941H83.942L83.9784 10.541V14.6528H83.1324Z" fill="white"/>
<path d="M52.1599 11.62C52.1599 12.5418 51.8871 13.2755 51.3404 13.8233C50.72 14.4745 49.9104 14.8001 48.916 14.8001C47.9634 14.8001 47.1527 14.4701 46.4872 13.8101C45.8206 13.149 45.4873 12.3306 45.4873 11.3538C45.4873 10.3759 45.8206 9.55755 46.4872 8.89755C47.1527 8.23645 47.9634 7.90645 48.916 7.90645C49.389 7.90645 49.8411 7.99885 50.2701 8.18255C50.7002 8.36735 51.0445 8.61265 51.3019 8.91955L50.7222 9.50035C50.2855 8.97785 49.6838 8.71715 48.9149 8.71715C48.2197 8.71715 47.6191 8.96135 47.112 9.44975C46.6049 9.93815 46.3519 10.5728 46.3519 11.3527C46.3519 12.1326 46.6049 12.7673 47.112 13.2557C47.6191 13.7441 48.2197 13.9883 48.9149 13.9883C49.6519 13.9883 50.2668 13.743 50.7585 13.2513C51.0775 12.9312 51.2623 12.4857 51.3118 11.9148H48.9149V11.1217H52.1126C52.1456 11.2944 52.1599 11.4605 52.1599 11.62Z" stroke="white" stroke-width="0.2" stroke-miterlimit="10"/>
<path d="M57.231 8.86351H54.2258V10.9557H56.9362V11.7488H54.2258V13.841H57.231V14.6528H53.3777V8.05281H57.231V8.86351Z" stroke="white" stroke-width="0.2" stroke-miterlimit="10"/>
<path d="M60.8069 14.6528H59.9588V8.86351H58.1152V8.05281H62.6505V8.86351H60.8069V14.6528Z" stroke="white" stroke-width="0.2" stroke-miterlimit="10"/>
<path d="M65.9318 14.6528V8.05281H66.7799V14.6528H65.9318Z" stroke="white" stroke-width="0.2" stroke-miterlimit="10"/>
<path d="M70.541 14.6528H69.6929V8.86351H67.8493V8.05281H72.3846V8.86351H70.541V14.6528Z" stroke="white" stroke-width="0.2" stroke-miterlimit="10"/>
<path d="M80.9698 13.8003C80.3208 14.4669 79.5145 14.8002 78.5498 14.8002C77.5851 14.8002 76.7788 14.4669 76.1309 13.8003C75.4819 13.1337 75.1585 12.3175 75.1585 11.3528C75.1585 10.3881 75.4819 9.5719 76.1309 8.9053C76.7788 8.2387 77.5851 7.9043 78.5498 7.9043C79.509 7.9043 80.3142 8.2398 80.9654 8.9097C81.6166 9.5796 81.9422 10.3936 81.9422 11.3528C81.9422 12.3175 81.6177 13.1337 80.9698 13.8003ZM76.7568 13.247C77.2452 13.742 77.8425 13.9884 78.5498 13.9884C79.2571 13.9884 79.8555 13.7409 80.3428 13.247C80.8312 12.752 81.0765 12.1206 81.0765 11.3528C81.0765 10.585 80.8312 9.9536 80.3428 9.4586C79.8555 8.9636 79.2571 8.7172 78.5498 8.7172C77.8425 8.7172 77.2452 8.9647 76.7568 9.4586C76.2695 9.9536 76.0242 10.585 76.0242 11.3528C76.0242 12.1206 76.2695 12.752 76.7568 13.247Z" stroke="white" stroke-width="0.2" stroke-miterlimit="10"/>
<path d="M83.1324 14.6528V8.05281H84.1642L87.3718 13.1865H87.4081L87.3718 11.9149V8.05281H88.2199V14.6528H87.3344L83.9784 9.26941H83.942L83.9784 10.541V14.6528H83.1324Z" stroke="white" stroke-width="0.2" stroke-miterlimit="10"/>
<g filter="url(#filter0_ii_19_70619)">
<path d="M11.4796 8.64451C11.1595 8.98331 10.9703 9.50911 10.9703 10.19V34.5176C10.9703 35.1996 11.1595 35.7243 11.4796 36.0631L11.561 36.1423L25.1889 22.5144V22.3538V22.1932L11.561 8.56421L11.4796 8.64451Z" fill="url(#paint0_linear_19_70619)"/>
<path d="M29.7308 27.0586L25.1889 22.5145V22.3539V22.1933L29.7319 17.6503L29.8342 17.7086L35.2165 20.7666C36.7532 21.64 36.7532 23.0689 35.2165 23.9434L29.8342 27.0014L29.7308 27.0586Z" fill="url(#paint1_linear_19_70619)"/>
<g filter="url(#filter1_i_19_70619)">
<path d="M29.8342 27.0003L25.1878 22.3539L11.4796 36.0632C11.9856 36.6 12.8227 36.666 13.7654 36.1314L29.8342 27.0003Z" fill="url(#paint2_linear_19_70619)"/>
</g>
<path d="M29.8342 17.7074L13.7654 8.57745C12.8227 8.04175 11.9856 8.10885 11.4796 8.64565L25.1889 22.3549L29.8342 17.7074Z" fill="url(#paint3_linear_19_70619)"/>
</g>
<path d="M5 1.35278H143.5V-0.647217H5V1.35278ZM147.5 5.35278V39.3528H149.5V5.35278H147.5ZM143.5 43.3528H5V45.3528H143.5V43.3528ZM1 39.3528V5.35278H-1V39.3528H1ZM5 43.3528C2.79086 43.3528 1 41.5619 1 39.3528H-1C-1 42.6665 1.68629 45.3528 5 45.3528V43.3528ZM147.5 39.3528C147.5 41.5619 145.709 43.3528 143.5 43.3528V45.3528C146.814 45.3528 149.5 42.6665 149.5 39.3528H147.5ZM143.5 1.35278C145.709 1.35278 147.5 3.14364 147.5 5.35278H149.5C149.5 2.03908 146.814 -0.647217 143.5 -0.647217V1.35278ZM5 -0.647217C1.68629 -0.647217 -1 2.03908 -1 5.35278H1C1 3.14364 2.79086 1.35278 5 1.35278V-0.647217Z" fill="#A6A6A6"/>
<defs>
<filter id="filter0_ii_19_70619" x="10.9703" y="8.20776" width="25.3987" height="28.2928" filterUnits="userSpaceOnUse" color-interpolation-filters="sRGB">
<feFlood flood-opacity="0" result="BackgroundImageFix"/>
<feBlend mode="normal" in="SourceGraphic" in2="BackgroundImageFix" result="shape"/>
<feColorMatrix in="SourceAlpha" type="matrix" values="0 0 0 0 0 0 0 0 0 0 0 0 0 0 0 0 0 0 127 0" result="hardAlpha"/>
<feOffset dy="-0.15"/>
<feComposite in2="hardAlpha" operator="arithmetic" k2="-1" k3="1"/>
<feColorMatrix type="matrix" values="0 0 0 0 0 0 0 0 0 0 0 0 0 0 0 0 0 0 0.12 0"/>
<feBlend mode="normal" in2="shape" result="effect1_innerShadow_19_70619"/>
<feColorMatrix in="SourceAlpha" type="matrix" values="0 0 0 0 0 0 0 0 0 0 0 0 0 0 0 0 0 0 127 0" result="hardAlpha"/>
<feOffset dy="0.15"/>
<feComposite in2="hardAlpha" operator="arithmetic" k2="-1" k3="1"/>
<feColorMatrix type="matrix" values="0 0 0 0 1 0 0 0 0 1 0 0 0 0 1 0 0 0 0.25 0"/>
<feBlend mode="normal" in2="effect1_innerShadow_19_70619" result="effect2_innerShadow_19_70619"/>
</filter>
<filter id="filter1_i_19_70619" x="11.4796" y="22.3539" width="18.3546" height="14.1467" filterUnits="userSpaceOnUse" color-interpolation-filters="sRGB">
<feFlood flood-opacity="0" result="BackgroundImageFix"/>
<feBlend mode="normal" in="SourceGraphic" in2="BackgroundImageFix" result="shape"/>
<feColorMatrix in="SourceAlpha" type="matrix" values="0 0 0 0 0 0 0 0 0 0 0 0 0 0 0 0 0 0 127 0" result="hardAlpha"/>
<feOffset dy="-0.15"/>
<feComposite in2="hardAlpha" operator="arithmetic" k2="-1" k3="1"/>
<feColorMatrix type="matrix" values="0 0 0 0 0 0 0 0 0 0 0 0 0 0 0 0 0 0 0.08 0"/>
<feBlend mode="normal" in2="shape" result="effect1_innerShadow_19_70619"/>
</filter>
<linearGradient id="paint0_linear_19_70619" x1="23.9809" y1="9.93261" x2="5.5207" y2="28.3928" gradientUnits="userSpaceOnUse">
<stop stop-color="#00A0FF"/>
<stop offset="0.0066" stop-color="#00A1FF"/>
<stop offset="0.2601" stop-color="#00BEFF"/>
<stop offset="0.5122" stop-color="#00D2FF"/>
<stop offset="0.7604" stop-color="#00DFFF"/>
<stop offset="1" stop-color="#00E3FF"/>
</linearGradient>
<linearGradient id="paint1_linear_19_70619" x1="37.2168" y1="22.3539" x2="10.6013" y2="22.3539" gradientUnits="userSpaceOnUse">
<stop stop-color="#FFE000"/>
<stop offset="0.4087" stop-color="#FFBD00"/>
<stop offset="0.7754" stop-color="#FFA500"/>
<stop offset="1" stop-color="#FF9C00"/>
</linearGradient>
<linearGradient id="paint2_linear_19_70619" x1="27.3109" y1="24.8772" x2="2.27658" y2="49.9115" gradientUnits="userSpaceOnUse">
<stop stop-color="#FF3A44"/>
<stop offset="1" stop-color="#C31162"/>
</linearGradient>
<linearGradient id="paint3_linear_19_70619" x1="8.02715" y1="0.547226" x2="19.2057" y2="11.7258" gradientUnits="userSpaceOnUse">
<stop stop-color="#32A071"/>
<stop offset="0.0685" stop-color="#2DA771"/>
<stop offset="0.4762" stop-color="#15CF74"/>
<stop offset="0.8009" stop-color="#06E775"/>
<stop offset="1" stop-color="#00F076"/>
</linearGradient>
</defs>
</svg>
