<svg width="184" height="55" viewBox="0 0 184 55" fill="none" xmlns="http://www.w3.org/2000/svg">
<path d="M3.03535 33.213C7.42809 41.5657 13.4531 48.7146 20.9413 54.4657C21.0783 54.6218 21.2489 54.7544 21.4413 54.8498C21.632 54.9453 21.8396 54.9923 22.048 54.9979C22.0744 54.9979 22.1013 55 22.127 55C22.3615 55 22.5992 54.9453 22.8185 54.8411C22.9935 54.7584 23.1464 54.6401 23.2734 54.4971C40.0277 41.6662 43.2949 28.2175 43.4158 27.692C43.91 25.8088 44.1614 23.9211 44.1614 22.0812C44.1619 9.90599 34.2552 0 22.0804 0C9.90474 0 0 9.90495 0 22.0812C0 23.885 0.239771 25.7298 0.712629 27.5701C0.724742 27.695 0.751685 27.8197 0.794501 27.9404C0.934437 28.3266 2.17632 31.7615 3.03535 33.213ZM21.9444 18.6539C18.8964 18.6539 16.1574 20.3485 14.796 23.0783C14.4276 23.8181 13.5264 24.1174 12.7874 23.749C12.0481 23.381 11.7473 22.4808 12.1168 21.741C13.9884 17.9901 17.7533 15.6594 21.9442 15.6594C26.1889 15.6594 30.0948 18.1445 31.8953 21.9914C32.2473 22.74 31.9217 23.6324 31.1729 23.9819C30.9684 24.0784 30.7518 24.1233 30.5394 24.1233C29.977 24.1233 29.4381 23.805 29.1835 23.2611C27.8744 20.4611 25.032 18.6539 21.9444 18.6539ZM26.4786 27.4882C26.4786 29.9972 24.4464 32.0307 21.9367 32.0307C19.4281 32.0307 17.3953 29.9972 17.3953 27.4882C17.3953 24.9802 19.4281 22.9468 21.9367 22.9468C24.4462 22.9468 26.4786 24.9802 26.4786 27.4882ZM21.9177 11.0307C16.9698 11.0307 12.522 13.7824 10.3101 18.2123C9.94067 18.9532 9.04153 19.2525 8.30154 18.883C7.56217 18.5141 7.26162 17.6148 7.63089 16.875C10.353 11.4231 15.8267 8.03649 21.9165 8.03649C28.0868 8.03649 33.7638 11.6489 36.3789 17.2407C36.73 17.9893 36.4052 18.8811 35.6567 19.2307C35.452 19.3276 35.2356 19.3725 35.0232 19.3725C34.4597 19.3725 33.9217 19.0542 33.6663 18.5104C31.5434 13.9664 26.931 11.0307 21.9177 11.0307Z" fill="white"/>
<path d="M64.6416 39.5H69.437L73.8575 24.2841H74.0393L78.4711 39.5H83.2666L89.9257 16.2273H84.5507L80.6984 32.4318H80.4938L76.2552 16.2273H71.6529L67.4029 32.3977H67.2097L63.3575 16.2273H57.9825L64.6416 39.5ZM98.5478 39.8409C102.866 39.8409 105.775 37.7386 106.457 34.5L101.98 34.2045C101.491 35.5341 100.241 36.2273 98.6274 36.2273C96.2069 36.2273 94.6728 34.625 94.6728 32.0227V32.0114H106.559V30.6818C106.559 24.75 102.968 21.8182 98.3546 21.8182C93.2183 21.8182 89.8887 25.4659 89.8887 30.8523C89.8887 36.3864 93.1728 39.8409 98.5478 39.8409ZM94.6728 29.0114C94.7751 27.0227 96.2865 25.4318 98.4342 25.4318C100.536 25.4318 101.991 26.9318 102.002 29.0114H94.6728ZM117.673 39.8409C121.991 39.8409 124.9 37.7386 125.582 34.5L121.105 34.2045C120.616 35.5341 119.366 36.2273 117.752 36.2273C115.332 36.2273 113.798 34.625 113.798 32.0227V32.0114H125.684V30.6818C125.684 24.75 122.093 21.8182 117.48 21.8182C112.343 21.8182 109.014 25.4659 109.014 30.8523C109.014 36.3864 112.298 39.8409 117.673 39.8409ZM113.798 29.0114C113.9 27.0227 115.411 25.4318 117.559 25.4318C119.661 25.4318 121.116 26.9318 121.127 29.0114H113.798ZM128.752 39.5H143.423V35.6364H135.105V35.5114L143.127 25.1932V22.0455H129.048V25.9091H137.298V26.0341L128.752 36.6136V39.5ZM154.579 39.8409C158.897 39.8409 161.806 37.7386 162.488 34.5L158.011 34.2045C157.522 35.5341 156.272 36.2273 154.659 36.2273C152.238 36.2273 150.704 34.625 150.704 32.0227V32.0114H162.59V30.6818C162.59 24.75 159 21.8182 154.386 21.8182C149.25 21.8182 145.92 25.4659 145.92 30.8523C145.92 36.3864 149.204 39.8409 154.579 39.8409ZM150.704 29.0114C150.806 27.0227 152.318 25.4318 154.465 25.4318C156.568 25.4318 158.022 26.9318 158.034 29.0114H150.704ZM173.704 39.8409C178.022 39.8409 180.931 37.7386 181.613 34.5L177.136 34.2045C176.647 35.5341 175.397 36.2273 173.784 36.2273C171.363 36.2273 169.829 34.625 169.829 32.0227V32.0114H181.715V30.6818C181.715 24.75 178.125 21.8182 173.511 21.8182C168.375 21.8182 165.045 25.4659 165.045 30.8523C165.045 36.3864 168.329 39.8409 173.704 39.8409ZM169.829 29.0114C169.931 27.0227 171.443 25.4318 173.59 25.4318C175.693 25.4318 177.147 26.9318 177.159 29.0114H169.829Z" fill="white"/>
</svg>
