<svg width="48" height="61" viewBox="0 0 48 61" fill="none" xmlns="http://www.w3.org/2000/svg">
<path d="M19.8742 50.4187C31.1334 39.3119 34.957 23.0189 35.9408 7.74515C35.9915 6.96019 36.0918 6.16052 36.1729 5.3862C37.2195 6.64031 44.867 17.3065 46.6371 16.1178C47.6716 15.4231 46.658 14.061 46.2612 13.5086C43.3908 9.5158 40.6719 5.97116 37.484 2.20878C35.0844 -0.623684 32.2582 0.942235 29.4942 2.64205C25.2744 5.23721 25.0057 5.75561 20.7293 8.60339C20.0245 9.0729 19.2674 9.49736 18.6361 10.0242C17.894 10.644 17.203 11.7452 17.8813 12.6021C18.6501 13.5733 19.7342 13.2318 20.5798 12.6048C20.7562 12.4734 20.9374 12.3483 21.1216 12.2276C23.1445 10.9022 32.1746 4.25441 32.6811 4.89087C32.8519 5.10513 32.881 5.39505 32.9013 5.66814C33.4898 13.547 31.9651 21.5522 29.7003 29.0755C28.1766 34.138 25.8163 38.9468 22.7562 43.2592C20.2972 46.7247 17.3435 49.8747 13.9049 52.3844C10.2178 55.0759 6.33738 56.3786 2.02299 57.6879C-0.460802 58.4414 2.11034 60.3635 3.57705 60.2977C5.18913 60.226 6.71048 59.2961 8.13255 58.6256C12.6307 56.5022 16.5345 53.713 19.8742 50.4187Z" fill="#6941C6"/>
</svg>
