<svg width="56" height="56" viewBox="0 0 56 56" fill="none" xmlns="http://www.w3.org/2000/svg">
<path d="M4 28C4 14.7452 14.7452 4 28 4C41.2548 4 52 14.7452 52 28C52 41.2548 41.2548 52 28 52C14.7452 52 4 41.2548 4 28Z" fill="#F4EBFF"/>
<path d="M37.21 31.89C36.5738 33.3945 35.5788 34.7202 34.3119 35.7513C33.045 36.7824 31.5448 37.4874 29.9424 37.8048C28.3401 38.1221 26.6844 38.0421 25.1202 37.5718C23.5559 37.1014 22.1306 36.2551 20.969 35.1067C19.8074 33.9582 18.9448 32.5428 18.4566 30.9839C17.9685 29.4251 17.8696 27.7705 18.1686 26.1646C18.4676 24.5588 19.1555 23.0506 20.1721 21.772C21.1886 20.4934 22.5029 19.4833 24 18.83M38 28C38 26.6868 37.7414 25.3864 37.2388 24.1732C36.7363 22.9599 35.9997 21.8575 35.0711 20.9289C34.1425 20.0003 33.0401 19.2638 31.8268 18.7612C30.6136 18.2587 29.3132 18 28 18V28H38Z" stroke="#7F56D9" stroke-width="2" stroke-linecap="round" stroke-linejoin="round"/>
<path d="M28 48C16.9543 48 8 39.0457 8 28H0C0 43.464 12.536 56 28 56V48ZM48 28C48 39.0457 39.0457 48 28 48V56C43.464 56 56 43.464 56 28H48ZM28 8C39.0457 8 48 16.9543 48 28H56C56 12.536 43.464 0 28 0V8ZM28 0C12.536 0 0 12.536 0 28H8C8 16.9543 16.9543 8 28 8V0Z" fill="#F9F5FF"/>
</svg>
