<svg width="24" height="25" viewBox="0 0 24 25" fill="none" xmlns="http://www.w3.org/2000/svg">
<path d="M0 12.5C0 5.87258 5.37258 0.5 12 0.5C18.6274 0.5 24 5.87258 24 12.5C24 19.1274 18.6274 24.5 12 24.5C5.37258 24.5 0 19.1274 0 12.5Z" fill="#D1FADF"/>
<path fill-rule="evenodd" clip-rule="evenodd" d="M17.0964 7.89004L9.93641 14.8L8.03641 12.77C7.68641 12.44 7.13641 12.42 6.73641 12.7C6.34641 12.99 6.23641 13.5 6.47641 13.91L8.72641 17.57C8.94641 17.91 9.32641 18.12 9.75641 18.12C10.1664 18.12 10.5564 17.91 10.7764 17.57C11.1364 17.1 18.0064 8.91004 18.0064 8.91004C18.9064 7.99004 17.8164 7.18004 17.0964 7.88004V7.89004Z" fill="#12B76A"/>
</svg>
