<svg width="45" height="56" viewBox="0 0 45 56" fill="none" xmlns="http://www.w3.org/2000/svg">
<path d="M3.03535 33.713C7.42809 42.0657 13.4531 49.2146 20.9413 54.9657C21.0783 55.1218 21.2489 55.2544 21.4413 55.3498C21.632 55.4453 21.8396 55.4923 22.048 55.4979C22.0744 55.4979 22.1013 55.5 22.127 55.5C22.3615 55.5 22.5992 55.4453 22.8185 55.3411C22.9935 55.2584 23.1464 55.1401 23.2734 54.9971C40.0277 42.1662 43.2949 28.7175 43.4158 28.192C43.91 26.3088 44.1614 24.4211 44.1614 22.5812C44.1619 10.406 34.2552 0.5 22.0804 0.5C9.90474 0.5 0 10.405 0 22.5812C0 24.385 0.239771 26.2298 0.712629 28.0701C0.724742 28.195 0.751685 28.3197 0.794502 28.4404C0.934437 28.8266 2.17632 32.2615 3.03535 33.713ZM21.9444 19.1539C18.8964 19.1539 16.1574 20.8485 14.796 23.5783C14.4276 24.3181 13.5264 24.6174 12.7874 24.249C12.0481 23.881 11.7473 22.9808 12.1168 22.241C13.9884 18.4901 17.7533 16.1594 21.9442 16.1594C26.1889 16.1594 30.0948 18.6445 31.8953 22.4914C32.2473 23.24 31.9217 24.1324 31.1729 24.4819C30.9684 24.5784 30.7518 24.6233 30.5394 24.6233C29.977 24.6233 29.4381 24.305 29.1835 23.7611C27.8744 20.9611 25.032 19.1539 21.9444 19.1539ZM26.4786 27.9882C26.4786 30.4972 24.4464 32.5307 21.9367 32.5307C19.4281 32.5307 17.3953 30.4972 17.3953 27.9882C17.3953 25.4802 19.4281 23.4468 21.9367 23.4468C24.4462 23.4468 26.4786 25.4802 26.4786 27.9882ZM21.9177 11.5307C16.9698 11.5307 12.522 14.2824 10.3101 18.7123C9.94066 19.4532 9.04153 19.7525 8.30154 19.383C7.56217 19.0141 7.26162 18.1148 7.63089 17.375C10.353 11.9231 15.8267 8.53649 21.9165 8.53649C28.0868 8.53649 33.7638 12.1489 36.3789 17.7407C36.73 18.4893 36.4052 19.3811 35.6567 19.7307C35.452 19.8276 35.2356 19.8725 35.0232 19.8725C34.4597 19.8725 33.9217 19.5542 33.6663 19.0104C31.5434 14.4664 26.931 11.5307 21.9177 11.5307Z" fill="#53389E"/>
</svg>
